# xmcd
#
# Track frame offsets:
#	150
#	11875
#	24497
#	36877
#	50642
#	64375
#	75777
#	87095
#	95515
#	107710
#	117100
#	129602
#	143657
#	156247
#	168027
#	193452
#	206682
#	221490
#	235537
#	245895
#
# Disc length: 3473 seconds
#
# Revision: 0
# Processed by: cddbd v1.5.1PL2 Copyright (c) Steve Scherf et al.
# Submitted via: dBpowerAMP V4.0
#
DISCID=140d8f14
DTITLE=Full Moon Guitars, The - Evergreen Country
DYEAR=1900
DGENRE=Country
TTITLE0=Duelling Banjos
TTITLE1=Dock Of The Bay
TTITLE2=Blowin' In The Wind
TTITLE3=Every Body's Talkin'
TTITLE4=Rhinestone Cowboy
TTITLE5=Georgia On My Mind
TTITLE6=Fever
TTITLE7=That's Alright Mama
TTITLE8=Galvestone
TTITLE9=Blue Moon Of Kentucky
TTITLE10=Sweet Home Alabama
TTITLE11=Get Back
TTITLE12=Take Me Home Country Roads
TTITLE13=Gentle On My Mind
TTITLE14=America Pie
TTITLE15=Nine To Five
TTITLE16=Green Grass Of Home
TTITLE17=Guitar Man
TTITLE18=Thank God I'm A Country Man
TTITLE19=King Of The Road
EXTD=
EXTT0=
EXTT1=
EXTT2=
EXTT3=
EXTT4=
EXTT5=
EXTT6=
EXTT7=
EXTT8=
EXTT9=
EXTT10=
EXTT11=
EXTT12=
EXTT13=
EXTT14=
EXTT15=
EXTT16=
EXTT17=
EXTT18=
EXTT19=
PLAYORDER=
